<svg xmlns="http://www.w3.org/2000/svg" width="900" height="580" viewBox="0 0 900 580">
  <rect width="100%" height="100%" fill="white"/>
  <text x="450.0" y="28" text-anchor="middle" font-family="Arial, sans-serif" font-size="20" font-weight="700" fill="#1f2933">Relacion exploratoria entre K/L y wage markdown</text>
  <g font-family="Arial, sans-serif">
    <line x1="90.00" y1="55" x2="90.00" y2="500" stroke="#d9dee2" stroke-width="1" /><line x1="283.75" y1="55" x2="283.75" y2="500" stroke="#d9dee2" stroke-width="1" /><line x1="477.50" y1="55" x2="477.50" y2="500" stroke="#d9dee2" stroke-width="1" /><line x1="671.25" y1="55" x2="671.25" y2="500" stroke="#d9dee2" stroke-width="1" /><line x1="865.00" y1="55" x2="865.00" y2="500" stroke="#d9dee2" stroke-width="1" /><line x1="90" y1="500.00" x2="865" y2="500.00" stroke="#d9dee2" stroke-width="1" /><line x1="90" y1="388.75" x2="865" y2="388.75" stroke="#d9dee2" stroke-width="1" /><line x1="90" y1="277.50" x2="865" y2="277.50" stroke="#d9dee2" stroke-width="1" /><line x1="90" y1="166.25" x2="865" y2="166.25" stroke="#d9dee2" stroke-width="1" /><line x1="90" y1="55.00" x2="865" y2="55.00" stroke="#d9dee2" stroke-width="1" />
    <line x1="90" y1="500" x2="865" y2="500" stroke="#1f2933" stroke-width="1.4"/>
    <line x1="90" y1="55" x2="90" y2="500" stroke="#1f2933" stroke-width="1.4"/>
    <path d="M 90.00 317.89 L 93.89 316.75 L 97.79 315.62 L 101.68 314.50 L 105.58 313.39 L 109.47 312.28 L 113.37 311.19 L 117.26 310.11 L 121.16 309.03 L 125.05 307.97 L 128.94 306.91 L 132.84 305.87 L 136.73 304.83 L 140.63 303.81 L 144.52 302.79 L 148.42 301.78 L 152.31 300.78 L 156.21 299.80 L 160.10 298.82 L 163.99 297.85 L 167.89 296.89 L 171.78 295.94 L 175.68 294.99 L 179.57 294.06 L 183.47 293.14 L 187.36 292.23 L 191.26 291.32 L 195.15 290.43 L 199.05 289.55 L 202.94 288.67 L 206.83 287.81 L 210.73 286.95 L 214.62 286.10 L 218.52 285.27 L 222.41 284.44 L 226.31 283.62 L 230.20 282.81 L 234.10 282.01 L 237.99 281.22 L 241.88 280.44 L 245.78 279.67 L 249.67 278.91 L 253.57 278.16 L 257.46 277.42 L 261.36 276.69 L 265.25 275.96 L 269.15 275.25 L 273.04 274.54 L 276.93 273.85 L 280.83 273.16 L 284.72 272.49 L 288.62 271.82 L 292.51 271.16 L 296.41 270.52 L 300.30 269.88 L 304.20 269.25 L 308.09 268.63 L 311.98 268.02 L 315.88 267.42 L 319.77 266.83 L 323.67 266.25 L 327.56 265.68 L 331.46 265.12 L 335.35 264.56 L 339.25 264.02 L 343.14 263.49 L 347.04 262.96 L 350.93 262.45 L 354.82 261.94 L 358.72 261.45 L 362.61 260.96 L 366.51 260.48 L 370.40 260.02 L 374.30 259.56 L 378.19 259.11 L 382.09 258.67 L 385.98 258.24 L 389.87 257.82 L 393.77 257.41 L 397.66 257.01 L 401.56 256.62 L 405.45 256.23 L 409.35 255.86 L 413.24 255.50 L 417.14 255.15 L 421.03 254.80 L 424.92 254.47 L 428.82 254.14 L 432.71 253.83 L 436.61 253.52 L 440.50 253.22 L 444.40 252.93 L 448.29 252.66 L 452.19 252.39 L 456.08 252.13 L 459.97 251.88 L 463.87 251.64 L 467.76 251.41 L 471.66 251.19 L 475.55 250.98 L 479.45 250.77 L 483.34 250.58 L 487.24 250.40 L 491.13 250.23 L 495.03 250.06 L 498.92 249.91 L 502.81 249.76 L 506.71 249.63 L 510.60 249.50 L 514.50 249.38 L 518.39 249.27 L 522.29 249.18 L 526.18 249.09 L 530.08 249.01 L 533.97 248.94 L 537.86 248.88 L 541.76 248.83 L 545.65 248.79 L 549.55 248.76 L 553.44 248.74 L 557.34 248.72 L 561.23 248.72 L 565.13 248.73 L 569.02 248.74 L 572.91 248.77 L 576.81 248.80 L 580.70 248.85 L 584.60 248.90 L 588.49 248.96 L 592.39 249.04 L 596.28 249.12 L 600.18 249.21 L 604.07 249.31 L 607.96 249.42 L 611.86 249.54 L 615.75 249.67 L 619.65 249.81 L 623.54 249.96 L 627.44 250.12 L 631.33 250.28 L 635.23 250.46 L 639.12 250.65 L 643.02 250.84 L 646.91 251.05 L 650.80 251.26 L 654.70 251.49 L 658.59 251.72 L 662.49 251.96 L 666.38 252.22 L 670.28 252.48 L 674.17 252.75 L 678.07 253.03 L 681.96 253.32 L 685.85 253.62 L 689.75 253.93 L 693.64 254.25 L 697.54 254.58 L 701.43 254.92 L 705.33 255.27 L 709.22 255.62 L 713.12 255.99 L 717.01 256.37 L 720.90 256.75 L 724.80 257.15 L 728.69 257.55 L 732.59 257.96 L 736.48 258.39 L 740.38 258.82 L 744.27 259.26 L 748.17 259.71 L 752.06 260.17 L 755.95 260.65 L 759.85 261.13 L 763.74 261.62 L 767.64 262.11 L 771.53 262.62 L 775.43 263.14 L 779.32 263.67 L 783.22 264.21 L 787.11 264.75 L 791.01 265.31 L 794.90 265.87 L 798.79 266.45 L 802.69 267.03 L 806.58 267.63 L 810.48 268.23 L 814.37 268.84 L 818.27 269.46 L 822.16 270.10 L 826.06 270.74 L 829.95 271.39 L 833.84 272.05 L 837.74 272.72 L 841.63 273.40 L 845.53 274.09 L 849.42 274.78 L 853.32 275.49 L 857.21 276.21 L 861.11 276.94 L 865.00 277.67" fill="none" stroke="#b23a48" stroke-width="3"/>
    <circle cx="690.38" cy="211.76" r="4.3" fill="#2f6f73" opacity="0.78" stroke="white" stroke-width="0.7" />
<circle cx="555.64" cy="448.85" r="4.3" fill="#2f6f73" opacity="0.78" stroke="white" stroke-width="0.7" />
<circle cx="687.04" cy="253.12" r="4.3" fill="#2f6f73" opacity="0.78" stroke="white" stroke-width="0.7" />
<circle cx="538.91" cy="208.18" r="4.3" fill="#2f6f73" opacity="0.78" stroke="white" stroke-width="0.7" />
<circle cx="385.04" cy="207.29" r="4.3" fill="#2f6f73" opacity="0.78" stroke="white" stroke-width="0.7" />
<circle cx="626.06" cy="294.10" r="4.3" fill="#2f6f73" opacity="0.78" stroke="white" stroke-width="0.7" />
<circle cx="289.00" cy="285.32" r="4.3" fill="#2f6f73" opacity="0.78" stroke="white" stroke-width="0.7" />
<circle cx="697.32" cy="315.48" r="4.3" fill="#2f6f73" opacity="0.78" stroke="white" stroke-width="0.7" />
<circle cx="385.00" cy="245.71" r="4.3" fill="#2f6f73" opacity="0.78" stroke="white" stroke-width="0.7" />
<circle cx="696.77" cy="254.20" r="4.3" fill="#2f6f73" opacity="0.78" stroke="white" stroke-width="0.7" />
<circle cx="674.39" cy="406.33" r="4.3" fill="#2f6f73" opacity="0.78" stroke="white" stroke-width="0.7" />
<circle cx="598.10" cy="238.52" r="4.3" fill="#2f6f73" opacity="0.78" stroke="white" stroke-width="0.7" />
<circle cx="329.47" cy="223.81" r="4.3" fill="#2f6f73" opacity="0.78" stroke="white" stroke-width="0.7" />
<circle cx="301.48" cy="350.04" r="4.3" fill="#2f6f73" opacity="0.78" stroke="white" stroke-width="0.7" />
<circle cx="196.22" cy="382.93" r="4.3" fill="#2f6f73" opacity="0.78" stroke="white" stroke-width="0.7" />
<circle cx="729.26" cy="235.51" r="4.3" fill="#2f6f73" opacity="0.78" stroke="white" stroke-width="0.7" />
<circle cx="596.18" cy="240.55" r="4.3" fill="#2f6f73" opacity="0.78" stroke="white" stroke-width="0.7" />
<circle cx="808.38" cy="375.62" r="4.3" fill="#2f6f73" opacity="0.78" stroke="white" stroke-width="0.7" />
<circle cx="856.24" cy="269.83" r="4.3" fill="#2f6f73" opacity="0.78" stroke="white" stroke-width="0.7" />
<circle cx="297.25" cy="469.31" r="4.3" fill="#2f6f73" opacity="0.78" stroke="white" stroke-width="0.7" />
<circle cx="178.16" cy="282.87" r="4.3" fill="#2f6f73" opacity="0.78" stroke="white" stroke-width="0.7" />
<circle cx="616.68" cy="236.51" r="4.3" fill="#2f6f73" opacity="0.78" stroke="white" stroke-width="0.7" />
<circle cx="527.44" cy="200.30" r="4.3" fill="#2f6f73" opacity="0.78" stroke="white" stroke-width="0.7" />
<circle cx="504.99" cy="254.20" r="4.3" fill="#2f6f73" opacity="0.78" stroke="white" stroke-width="0.7" />
<circle cx="793.63" cy="350.04" r="4.3" fill="#2f6f73" opacity="0.78" stroke="white" stroke-width="0.7" />
<circle cx="134.70" cy="159.99" r="4.3" fill="#2f6f73" opacity="0.78" stroke="white" stroke-width="0.7" />
<circle cx="699.69" cy="208.18" r="4.3" fill="#2f6f73" opacity="0.78" stroke="white" stroke-width="0.7" />
<circle cx="532.76" cy="215.41" r="4.3" fill="#2f6f73" opacity="0.78" stroke="white" stroke-width="0.7" />
<circle cx="469.68" cy="243.63" r="4.3" fill="#2f6f73" opacity="0.78" stroke="white" stroke-width="0.7" />
<circle cx="808.96" cy="164.39" r="4.3" fill="#2f6f73" opacity="0.78" stroke="white" stroke-width="0.7" />
<circle cx="612.47" cy="243.63" r="4.3" fill="#2f6f73" opacity="0.78" stroke="white" stroke-width="0.7" />
<circle cx="725.83" cy="206.40" r="4.3" fill="#2f6f73" opacity="0.78" stroke="white" stroke-width="0.7" />
<circle cx="620.82" cy="300.58" r="4.3" fill="#2f6f73" opacity="0.78" stroke="white" stroke-width="0.7" />
<circle cx="316.52" cy="256.37" r="4.3" fill="#2f6f73" opacity="0.78" stroke="white" stroke-width="0.7" />
<circle cx="334.53" cy="174.22" r="4.3" fill="#2f6f73" opacity="0.78" stroke="white" stroke-width="0.7" />
<circle cx="406.46" cy="280.45" r="4.3" fill="#2f6f73" opacity="0.78" stroke="white" stroke-width="0.7" />
<circle cx="863.42" cy="257.46" r="4.3" fill="#2f6f73" opacity="0.78" stroke="white" stroke-width="0.7" />
<circle cx="819.05" cy="178.11" r="4.3" fill="#2f6f73" opacity="0.78" stroke="white" stroke-width="0.7" />
<circle cx="262.18" cy="332.88" r="4.3" fill="#2f6f73" opacity="0.78" stroke="white" stroke-width="0.7" />
<circle cx="747.10" cy="324.02" r="4.3" fill="#2f6f73" opacity="0.78" stroke="white" stroke-width="0.7" />
<circle cx="90.00" cy="196.88" r="4.3" fill="#2f6f73" opacity="0.78" stroke="white" stroke-width="0.7" />
<circle cx="155.48" cy="464.03" r="4.3" fill="#2f6f73" opacity="0.78" stroke="white" stroke-width="0.7" />
<circle cx="718.96" cy="235.51" r="4.3" fill="#2f6f73" opacity="0.78" stroke="white" stroke-width="0.7" />
<circle cx="502.41" cy="173.45" r="4.3" fill="#2f6f73" opacity="0.78" stroke="white" stroke-width="0.7" />
<circle cx="650.16" cy="259.66" r="4.3" fill="#2f6f73" opacity="0.78" stroke="white" stroke-width="0.7" />
<circle cx="696.38" cy="247.80" r="4.3" fill="#2f6f73" opacity="0.78" stroke="white" stroke-width="0.7" />
<circle cx="614.84" cy="128.71" r="4.3" fill="#2f6f73" opacity="0.78" stroke="white" stroke-width="0.7" />
<circle cx="291.85" cy="202.02" r="4.3" fill="#2f6f73" opacity="0.78" stroke="white" stroke-width="0.7" />
<circle cx="286.95" cy="260.77" r="4.3" fill="#2f6f73" opacity="0.78" stroke="white" stroke-width="0.7" />
<circle cx="466.42" cy="234.51" r="4.3" fill="#2f6f73" opacity="0.78" stroke="white" stroke-width="0.7" />
<circle cx="533.57" cy="430.01" r="4.3" fill="#2f6f73" opacity="0.78" stroke="white" stroke-width="0.7" />
<circle cx="699.18" cy="235.51" r="4.3" fill="#2f6f73" opacity="0.78" stroke="white" stroke-width="0.7" />
<circle cx="351.41" cy="143.84" r="4.3" fill="#2f6f73" opacity="0.78" stroke="white" stroke-width="0.7" />
<circle cx="691.91" cy="260.77" r="4.3" fill="#2f6f73" opacity="0.78" stroke="white" stroke-width="0.7" />
<circle cx="607.56" cy="242.60" r="4.3" fill="#2f6f73" opacity="0.78" stroke="white" stroke-width="0.7" />
<circle cx="537.59" cy="208.18" r="4.3" fill="#2f6f73" opacity="0.78" stroke="white" stroke-width="0.7" />
<circle cx="489.55" cy="139.13" r="4.3" fill="#2f6f73" opacity="0.78" stroke="white" stroke-width="0.7" />
<circle cx="675.29" cy="337.44" r="4.3" fill="#2f6f73" opacity="0.78" stroke="white" stroke-width="0.7" />
<circle cx="684.40" cy="229.59" r="4.3" fill="#2f6f73" opacity="0.78" stroke="white" stroke-width="0.7" />
<circle cx="761.69" cy="309.96" r="4.3" fill="#2f6f73" opacity="0.78" stroke="white" stroke-width="0.7" />
<circle cx="122.34" cy="278.04" r="4.3" fill="#2f6f73" opacity="0.78" stroke="white" stroke-width="0.7" />
<circle cx="344.33" cy="340.53" r="4.3" fill="#2f6f73" opacity="0.78" stroke="white" stroke-width="0.7" />
<circle cx="748.28" cy="215.41" r="4.3" fill="#2f6f73" opacity="0.78" stroke="white" stroke-width="0.7" />
<circle cx="101.63" cy="358.26" r="4.3" fill="#2f6f73" opacity="0.78" stroke="white" stroke-width="0.7" />
<circle cx="865.00" cy="332.88" r="4.3" fill="#2f6f73" opacity="0.78" stroke="white" stroke-width="0.7" />
<circle cx="668.63" cy="379.25" r="4.3" fill="#2f6f73" opacity="0.78" stroke="white" stroke-width="0.7" />
<circle cx="735.27" cy="351.66" r="4.3" fill="#2f6f73" opacity="0.78" stroke="white" stroke-width="0.7" />
<circle cx="660.25" cy="270.98" r="4.3" fill="#2f6f73" opacity="0.78" stroke="white" stroke-width="0.7" />
<circle cx="305.80" cy="289.05" r="4.3" fill="#2f6f73" opacity="0.78" stroke="white" stroke-width="0.7" />
<circle cx="662.99" cy="181.27" r="4.3" fill="#2f6f73" opacity="0.78" stroke="white" stroke-width="0.7" />
<circle cx="774.91" cy="98.81" r="4.3" fill="#2f6f73" opacity="0.78" stroke="white" stroke-width="0.7" />
<circle cx="271.65" cy="338.98" r="4.3" fill="#2f6f73" opacity="0.78" stroke="white" stroke-width="0.7" />
<circle cx="759.48" cy="281.66" r="4.3" fill="#2f6f73" opacity="0.78" stroke="white" stroke-width="0.7" />
<circle cx="706.61" cy="249.92" r="4.3" fill="#2f6f73" opacity="0.78" stroke="white" stroke-width="0.7" />
<circle cx="491.14" cy="178.11" r="4.3" fill="#2f6f73" opacity="0.78" stroke="white" stroke-width="0.7" />
<circle cx="408.05" cy="110.32" r="4.3" fill="#2f6f73" opacity="0.78" stroke="white" stroke-width="0.7" />
<circle cx="622.94" cy="85.69" r="4.3" fill="#2f6f73" opacity="0.78" stroke="white" stroke-width="0.7" />
<circle cx="494.48" cy="366.78" r="4.3" fill="#2f6f73" opacity="0.78" stroke="white" stroke-width="0.7" />
<circle cx="215.13" cy="296.67" r="4.3" fill="#2f6f73" opacity="0.78" stroke="white" stroke-width="0.7" />
    <text x="90.00" y="532" text-anchor="middle" font-size="13" fill="#333">8.8</text><text x="283.75" y="532" text-anchor="middle" font-size="13" fill="#333">9.9</text><text x="477.50" y="532" text-anchor="middle" font-size="13" fill="#333">10.9</text><text x="671.25" y="532" text-anchor="middle" font-size="13" fill="#333">12.0</text><text x="865.00" y="532" text-anchor="middle" font-size="13" fill="#333">13.0</text><text x="78" y="504.00" text-anchor="end" font-size="13" fill="#333">-0.2</text><text x="78" y="392.75" text-anchor="end" font-size="13" fill="#333">0.2</text><text x="78" y="281.50" text-anchor="end" font-size="13" fill="#333">0.7</text><text x="78" y="170.25" text-anchor="end" font-size="13" fill="#333">1.2</text><text x="78" y="59.00" text-anchor="end" font-size="13" fill="#333">1.6</text>
    <text x="477.5" y="564" text-anchor="middle" font-size="15" fill="#1f2933">log(K/L), promedio 2006-2019</text>
    <text x="20" y="277.5" text-anchor="middle" font-size="15" fill="#1f2933" transform="rotate(-90 20 277.5)">log(wage markdown mediano)</text>
    <text x="859" y="73" text-anchor="end" font-size="13" fill="#555">Curva cuadratica descriptiva</text>
  </g>
</svg>
